<svg id="visual" viewBox="0 0 1800 300" width="1800" height="300" xmlns="http://www.w3.org/2000/svg" xmlns:xlink="http://www.w3.org/1999/xlink" version="1.1"><rect x="0" y="0" width="1800" height="300" fill="#FFFFFF"></rect><path d="M0 220L50 216.8C100 213.7 200 207.3 300 182.8C400 158.3 500 115.7 600 98.7C700 81.7 800 90.3 900 123.3C1000 156.3 1100 213.7 1200 209.2C1300 204.7 1400 138.3 1500 134.7C1600 131 1700 190 1750 219.5L1800 249L1800 301L1750 301C1700 301 1600 301 1500 301C1400 301 1300 301 1200 301C1100 301 1000 301 900 301C800 301 700 301 600 301C500 301 400 301 300 301C200 301 100 301 50 301L0 301Z" fill="#25deff" stroke-linecap="round" stroke-linejoin="miter"></path></svg>