<svg id="visual" viewBox="0 0 2400 300" width="2400" height="300" xmlns="http://www.w3.org/2000/svg" xmlns:xlink="http://www.w3.org/1999/xlink" version="1.1"><rect x="0" y="0" width="2400" height="300" fill="#FFFFFF"></rect><path d="M0 221L23.5 209C47 197 94 173 141 185.2C188 197.3 235 245.7 282.2 258.2C329.3 270.7 376.7 247.3 423.8 223C471 198.7 518 173.3 565 185.5C612 197.7 659 247.3 706 267.7C753 288 800 279 847 270.2C894 261.3 941 252.7 988 238.5C1035 224.3 1082 204.7 1129.2 203.8C1176.3 203 1223.7 221 1270.8 235.7C1318 250.3 1365 261.7 1412 259.5C1459 257.3 1506 241.7 1553 214.2C1600 186.7 1647 147.3 1694 129.5C1741 111.7 1788 115.3 1835 137.3C1882 159.3 1929 199.7 1976.2 207.5C2023.3 215.3 2070.7 190.7 2117.8 172.2C2165 153.7 2212 141.3 2259 154.7C2306 168 2353 207 2376.5 226.5L2400 246L2400 301L2376.5 301C2353 301 2306 301 2259 301C2212 301 2165 301 2117.8 301C2070.7 301 2023.3 301 1976.2 301C1929 301 1882 301 1835 301C1788 301 1741 301 1694 301C1647 301 1600 301 1553 301C1506 301 1459 301 1412 301C1365 301 1318 301 1270.8 301C1223.7 301 1176.3 301 1129.2 301C1082 301 1035 301 988 301C941 301 894 301 847 301C800 301 753 301 706 301C659 301 612 301 565 301C518 301 471 301 423.8 301C376.7 301 329.3 301 282.2 301C235 301 188 301 141 301C94 301 47 301 23.5 301L0 301Z" fill="#0066FF" stroke-linecap="round" stroke-linejoin="miter"></path></svg>