<svg id="visual" viewBox="0 0 1800 300" width="1800" height="300" xmlns="http://www.w3.org/2000/svg" xmlns:xlink="http://www.w3.org/1999/xlink" version="1.1"><rect x="0" y="0" width="1800" height="300" fill="#ffffff"></rect><path d="M0 62L42.8 88.3C85.7 114.7 171.3 167.3 257 169C342.7 170.7 428.3 121.3 514 124.3C599.7 127.3 685.3 182.7 771.2 202.8C857 223 943 208 1028.8 186.3C1114.7 164.7 1200.3 136.3 1286 110.8C1371.7 85.3 1457.3 62.7 1543 62.3C1628.7 62 1714.3 84 1757.2 95L1800 106L1800 0L1757.2 0C1714.3 0 1628.7 0 1543 0C1457.3 0 1371.7 0 1286 0C1200.3 0 1114.7 0 1028.8 0C943 0 857 0 771.2 0C685.3 0 599.7 0 514 0C428.3 0 342.7 0 257 0C171.3 0 85.7 0 42.8 0L0 0Z" fill="#dfecff" stroke-linecap="round" stroke-linejoin="miter"></path></svg>